<svg width="18" height="20" viewBox="0 0 18 20" fill="none" xmlns="http://www.w3.org/2000/svg">
<path d="M0 3.75C0 3.55109 0.0790175 3.36032 0.21967 3.21967C0.360322 3.07902 0.551088 3 0.75 3C3.413 3 6.008 2.057 8.55 0.15C8.67982 0.0526335 8.83772 0 9 0C9.16228 0 9.32018 0.0526335 9.45 0.15C11.992 2.057 14.587 3 17.25 3C17.4489 3 17.6397 3.07902 17.7803 3.21967C17.921 3.36032 18 3.55109 18 3.75V9C18 14.001 15.042 17.676 9.275 19.948C9.09828 20.0176 8.90172 20.0176 8.725 19.948C2.958 17.676 0 14 0 9V3.75Z" fill="black"/>
</svg>
